<svg width="113" height="113" viewBox="0 0 113 113" fill="none" xmlns="http://www.w3.org/2000/svg">
    <path d="M61.5463 64.8819C57.4306 52.8398 79.3188 55.5996 87.3713 51.9179C83.2657 61.6994 65.662 76.9241 61.5463 64.8819Z" fill="#9EBD93"/>
    <path d="M66.8266 42.6155C79.3415 40.3066 66.216 22.5744 65.4825 13.7505C58.9649 22.1203 54.3118 44.9245 66.8266 42.6155Z" fill="#9EBD93"/>
    <path d="M53.2926 64.9919C66.0163 64.7446 55.9426 45.1173 56.6508 36.2914C48.8613 43.4925 40.5689 65.2392 53.2926 64.9919Z" fill="#9EBD93"/>
    <circle cx="56.4197" cy="56.2363" r="50" stroke="#CBDFC9" stroke-width="12"/>
    <path d="M21.4197 26.2363L87.8877 92.7044" stroke="#CBDFC9" stroke-width="12" stroke-linecap="square"/>
    <path d="M74.0708 49.2531C65.0721 40.2544 85.9386 33.0921 91.5466 26.2402C92.1686 36.8301 83.0695 58.2518 74.0708 49.2531Z" fill="#9EBD93"/>
    <path d="M77.8684 29.3309C65.2969 27.3533 77.9494 9.28052 78.4496 0.440364C85.186 8.63511 90.4399 31.3084 77.8684 29.3309Z" fill="#9EBD93"/>
    <path d="M41.4777 85.5004C39.4318 72.9398 60.5513 79.3179 69.1057 77.0333C63.4236 85.9914 43.5236 98.0609 41.4777 85.5004Z" fill="#9EBD93"/>
    <path d="M23.7725 96.5679C24.4629 83.8606 43.7273 94.6119 52.5726 94.2115C45.1045 101.745 23.0821 109.275 23.7725 96.5679Z" fill="#9EBD93"/>
    <path d="M34.8154 81.5208C47.3603 83.6608 41.1407 62.4941 43.4895 53.957C34.4891 59.5719 22.2705 79.3807 34.8154 81.5208Z" fill="#9EBD93"/>
    <path d="M18.8154 92.5208C31.3603 94.6608 25.1407 73.4941 27.4895 64.957C18.4891 70.5719 6.27055 90.3807 18.8154 92.5208Z" fill="#9EBD93"/>
    <rect y="109.94" width="21" height="3" rx="0.4" transform="rotate(-37.2102 0 109.94)" fill="#9EBD93"/>
</svg>
