<svg width="16" height="16" viewBox="0 0 16 16" fill="none" xmlns="http://www.w3.org/2000/svg">
<path d="M12.6433 11.8H6.45146C6.45146 13.45 4.52653 14.275 3.42653 12.9C2.32653 11.525 3.70153 10.15 3.70153 7.95C3.70153 6.19 3.33486 3.91667 3.15153 3H10.8515C11.8376 5.16934 11.5714 8.38467 11.2416 10.15" stroke="#6AA753" stroke-width="0.825" stroke-linecap="square"/>
<path d="M13.0619 12.0747H6.72615C6.72615 13.6392 5.38583 13.9182 4.80115 13.9997H11.01C11.9455 13.9997 13.0619 13.7247 13.0619 12.0747Z" fill="#6AA753"/>
<path fill-rule="evenodd" clip-rule="evenodd" d="M6.51139 4.16453C6.42547 4.07862 6.28618 4.07862 6.20026 4.16453L5.67524 4.68956L5.4423 4.45661C5.35638 4.37069 5.21708 4.37069 5.13117 4.45661L4.95616 4.63162C4.87024 4.71753 4.87024 4.85683 4.95616 4.94275L5.18911 5.17569L5.1891 5.1757L5.67524 5.66183L6.6864 4.65067C6.77231 4.56475 6.77231 4.42546 6.6864 4.33954L6.51139 4.16453Z" fill="#6AA753"/>
<path fill-rule="evenodd" clip-rule="evenodd" d="M6.42081 6.77708C6.3349 6.69117 6.1956 6.69117 6.10969 6.77708L5.58496 7.30181L5.35172 7.06856C5.2658 6.98265 5.12651 6.98265 5.04059 7.06856L4.86558 7.24357C4.77967 7.32949 4.77967 7.46878 4.86558 7.5547L5.09883 7.78794L5.09852 7.78825L5.58466 8.27438L6.59582 7.26322C6.68174 7.1773 6.68174 7.03801 6.59582 6.95209L6.42081 6.77708Z" fill="#6AA753"/>
<path fill-rule="evenodd" clip-rule="evenodd" d="M6.51139 9.11375C6.42547 9.02784 6.28618 9.02784 6.20026 9.11375L5.67524 9.63877L5.4423 9.40583C5.35638 9.31991 5.21708 9.31991 5.13117 9.40583L4.95616 9.58084C4.87024 9.66675 4.87024 9.80605 4.95616 9.89196L5.18911 10.1249L5.1891 10.1249L5.67524 10.6111L6.6864 9.59989C6.77231 9.51397 6.77231 9.37468 6.6864 9.28876L6.51139 9.11375Z" fill="#6AA753"/>
<rect x="7.00085" y="4.65015" width="3.3" height="0.55" rx="0.22" fill="#6AA753"/>
<rect x="7.00085" y="7.26221" width="3.3" height="0.55" rx="0.22" fill="#6AA753"/>
<rect x="7.00085" y="9.59985" width="3.3" height="0.55" rx="0.22" fill="#6AA753"/>
</svg>
