<svg width="16" height="16" viewBox="0 0 16 16" fill="none" xmlns="http://www.w3.org/2000/svg">
<path fill-rule="evenodd" clip-rule="evenodd" d="M8 2.5C4.96243 2.5 2.5 4.96243 2.5 8C2.5 11.0376 4.96243 13.5 8 13.5C11.0376 13.5 13.5 11.0376 13.5 8C13.5 4.96243 11.0376 2.5 8 2.5ZM7.24446 9.10877V9.40688H8.18609V9.18921C8.18609 9.02518 8.20502 8.8848 8.24287 8.76808C8.28388 8.65137 8.35644 8.53623 8.46054 8.42266C8.56779 8.30595 8.72079 8.16872 8.91952 8.011C9.16242 7.82488 9.36904 7.64822 9.53939 7.48103C9.71289 7.31069 9.8438 7.12615 9.93213 6.92741C10.0205 6.72552 10.0646 6.4842 10.0646 6.20345C10.0646 5.69241 9.88796 5.28075 9.53466 4.96845C9.1845 4.65615 8.68766 4.5 8.04414 4.5C7.64036 4.5 7.2697 4.5489 6.93216 4.64669C6.59778 4.74132 6.28706 4.8675 6 5.02523L6.39274 5.85803C6.64195 5.735 6.89431 5.63248 7.14983 5.55046C7.40534 5.46844 7.67821 5.42743 7.96843 5.42743C8.2965 5.42743 8.55044 5.49841 8.73025 5.64036C8.91321 5.77916 9.00469 5.98263 9.00469 6.25077C9.00469 6.42111 8.97473 6.57095 8.91479 6.70029C8.85801 6.82647 8.76337 6.95265 8.63088 7.07883C8.50155 7.20501 8.32647 7.35485 8.10565 7.52835C7.89114 7.69554 7.7208 7.85642 7.59462 8.011C7.46844 8.16241 7.37853 8.32487 7.3249 8.49837C7.27128 8.67187 7.24446 8.87534 7.24446 9.10877ZM7.26339 10.3864C7.1309 10.4905 7.06466 10.6718 7.06466 10.9305C7.06466 11.1829 7.1309 11.3658 7.26339 11.4794C7.39904 11.5898 7.56465 11.645 7.76023 11.645C7.9495 11.645 8.11196 11.5898 8.24761 11.4794C8.38325 11.3658 8.45107 11.1829 8.45107 10.9305C8.45107 10.6718 8.38325 10.4905 8.24761 10.3864C8.11196 10.2791 7.9495 10.2255 7.76023 10.2255C7.56465 10.2255 7.39904 10.2791 7.26339 10.3864Z" fill="#6AA753"/>
</svg>
