<svg width="92" height="112" viewBox="0 0 92 112" fill="none" xmlns="http://www.w3.org/2000/svg">
    <path d="M0 34C0 25.1634 7.16344 18 16 18H43V112H16C7.16344 112 0 104.837 0 96V34Z" fill="#9EBD93"/>
    <path d="M92 34C92 25.1634 84.8366 18 76 18H49V112H76C84.8366 112 92 104.837 92 96V34Z" fill="#9EBD93"/>
    <circle cx="46" cy="30" r="30" fill="white"/>
    <circle cx="46" cy="30" r="24.5" fill="white" stroke="#9EBD93" stroke-width="3"/>
    <path d="M46 6L46 14" stroke="#9EBD93" stroke-width="2" stroke-linecap="round"/>
    <path d="M69.5 29.5L61.5 29.5" stroke="#9EBD93" stroke-width="2" stroke-linecap="round"/>
    <path d="M46 45L46 53" stroke="#9EBD93" stroke-width="2" stroke-linecap="round"/>
    <path d="M30.5 29.5L22.5 29.5" stroke="#9EBD93" stroke-width="2" stroke-linecap="round"/>
    <path d="M45.2637 29.2637L29.0002 13.0002" stroke="#9EBD93" stroke-width="2" stroke-linecap="round"/>
    <circle cx="46" cy="30" r="8" fill="#9EBD93"/>
</svg>
