<svg width="16" height="16" viewBox="0 0 16 16" fill="none" xmlns="http://www.w3.org/2000/svg">
<path fill-rule="evenodd" clip-rule="evenodd" d="M7.0957 2.5C6.81441 2.5 6.5748 2.70433 6.53035 2.98208L6.33288 4.21629C5.95176 4.37754 5.5984 4.59155 5.28195 4.84917L4.16278 4.42158C3.90002 4.32119 3.60325 4.42654 3.46261 4.67014L2.57674 6.20452C2.4361 6.44812 2.49324 6.7578 2.71156 6.93516L3.70256 7.74025C3.68489 7.89953 3.67582 8.0614 3.67582 8.2254C3.67582 8.44724 3.69242 8.66521 3.72445 8.87813L2.75562 9.6652C2.5373 9.84257 2.48016 10.1522 2.6208 10.3958L3.50667 11.9302C3.64731 12.1738 3.94407 12.2792 4.20683 12.1788L5.42513 11.7133C5.70381 11.9216 6.00829 12.0972 6.3329 12.2345L6.53035 13.4686C6.5748 13.7464 6.81441 13.9507 7.0957 13.9507H8.86744C9.14873 13.9507 9.38835 13.7464 9.43279 13.4686L9.62387 12.2743C9.978 12.1346 10.3094 11.9497 10.611 11.7268L11.7932 12.1784C12.0559 12.2788 12.3527 12.1735 12.4933 11.9299L13.3792 10.3955C13.5198 10.1519 13.4627 9.84221 13.2444 9.66485L12.3237 8.91689C12.3597 8.69169 12.3783 8.46073 12.3783 8.2254C12.3783 8.04769 12.3677 7.87247 12.347 7.70035L13.2884 6.93552C13.5068 6.75815 13.5639 6.44847 13.4233 6.20487L12.5374 4.6705C12.3967 4.4269 12.1 4.32155 11.8372 4.42194L10.7552 4.83535C10.4162 4.56222 10.0354 4.33888 9.62389 4.17647L9.43279 2.98208C9.38835 2.70433 9.14873 2.5 8.86744 2.5H7.0957ZM8.02754 10.2866C9.16586 10.2866 10.0887 9.36381 10.0887 8.22548C10.0887 7.08716 9.16586 6.16436 8.02754 6.16436C6.88921 6.16436 5.96641 7.08716 5.96641 8.22548C5.96641 9.36381 6.88921 10.2866 8.02754 10.2866Z" fill="#6AA753"/>
</svg>
