<svg width="120" height="120" viewBox="0 0 120 120" fill="none" xmlns="http://www.w3.org/2000/svg">
<path d="M69.1575 116.826C68.1372 116.346 67.0269 116.466 65.9766 116.286C60.1549 115.385 54.5433 113.645 48.9617 111.814C45.4807 110.674 41.9997 109.594 38.5187 108.483C37.5584 108.183 36.5682 108.093 35.5779 108.093C29.5462 108.093 23.5144 108.093 17.4827 108.093C14.3318 108.093 11.6911 107.073 9.7405 104.522C8.78022 103.262 8.21006 101.821 8.09003 100.231C8.06002 99.6908 8.03001 99.1206 8.03001 98.5805C8.03001 84.4765 8.06002 70.3724 8 56.2384C8 52.3373 9.53044 49.4865 13.0114 47.6559C14.3618 46.9657 15.8322 46.7857 17.3327 46.7857C23.0643 46.7857 28.8259 46.7857 34.5576 46.8157C35.2478 46.8157 35.7279 46.6357 36.2381 46.1855C38.7588 43.9649 40.7994 41.3241 42.87 38.7134C45.8408 34.9923 48.7516 31.2112 51.9926 27.6702C53.7331 25.7797 54.2432 23.379 54.7534 21.0083C55.4436 17.7974 56.1037 14.5565 57.2441 11.4656C58.4144 8.3147 60.1849 5.58392 63.2758 3.93345C65.4964 2.76312 67.8671 2.91316 70.2378 3.21324C73.9888 3.72339 77.5599 4.83371 80.5907 7.41444C83.1415 9.57506 84.7319 12.3058 85.5722 15.4868C87.4927 22.8389 87.1626 30.0709 83.8617 37.0329C83.3815 38.0232 83.7716 38.0832 84.6119 38.0832C88.603 38.0832 92.6242 38.0232 96.6153 38.1432C105.588 38.4733 113.21 46.7257 112.97 55.7283C112.88 59.2693 112.04 62.6002 110.209 65.6311C109.819 66.2613 109.669 66.8614 109.849 67.6116C110.779 71.9629 110.149 76.1341 108.199 80.1252C107.839 80.8454 107.688 81.5356 107.779 82.3458C108.229 87.2372 107.118 91.7385 104.177 95.7297C103.817 96.2098 103.787 96.75 103.757 97.2901C103.607 101.521 102.647 105.482 100.036 108.933C96.5253 113.585 91.7239 115.865 86.0523 116.586C85.7522 116.616 85.3621 116.406 85.152 116.796C79.8105 116.826 74.469 116.826 69.1575 116.826ZM34.2275 77.4244C34.2275 84.3864 34.2575 91.3484 34.1975 98.3104C34.1975 99.1507 34.4075 99.3907 35.2178 99.3307C36.8382 99.2407 38.4587 99.4808 40.0492 99.8409C43.8602 100.681 47.4313 102.182 51.1223 103.382C58.2344 105.693 65.3764 107.913 72.9385 108.033C77.6199 108.123 82.3612 108.483 86.9826 107.493C90.8237 106.653 93.4944 104.432 94.5147 100.501C95.0849 98.2804 95.0549 96.0298 94.7548 93.7791C94.6948 93.269 94.6348 92.8489 95.1749 92.4587C98.7159 89.878 100.096 84.4765 98.2358 80.3953C97.9357 79.7051 98.0257 79.315 98.5059 78.7748C102.227 74.7837 102.107 69.6822 99.7662 65.421C99.3761 64.7308 98.836 64.2507 100.156 64.0406C100.546 63.9806 100.967 63.6205 101.237 63.2904C103.247 60.8597 104.388 58.0689 104.117 54.918C103.697 50.2367 99.8562 46.8757 95.1149 46.8457C87.9728 46.8157 80.8308 46.8457 73.6888 46.8457C71.108 46.8457 71.168 46.8457 71.7082 44.265C72.5184 40.3939 74.2589 36.8829 75.8494 33.3118C77.7699 28.9306 78.4901 24.3993 77.5299 19.688C76.9297 16.7471 75.9994 14.0463 72.8485 12.786C71.078 12.0958 69.2475 12.0058 67.417 11.8857C66.9969 11.8557 66.8468 12.1558 66.6367 12.3959C65.6165 13.6262 65.1063 15.0966 64.7462 16.5971C63.996 19.6279 63.2758 22.6888 62.5256 25.7497C61.8054 28.6005 60.575 31.2413 58.5644 33.4619C55.3535 37.0329 52.3827 40.844 49.4718 44.6551C46.9511 47.956 44.2203 51.0769 40.9494 53.6877C39.329 54.978 37.5584 55.8183 35.4278 55.5782C34.3775 55.4582 34.2575 55.8783 34.2575 56.8086C34.2575 63.6205 34.2275 70.5225 34.2275 77.4244ZM21.1438 99.3007C23.5444 99.3007 25.495 97.2901 25.465 94.8894C25.435 92.5188 23.4844 90.5982 21.1438 90.5982C18.7731 90.5982 16.7325 92.6088 16.7625 94.9494C16.7325 97.3201 18.7431 99.3007 21.1438 99.3007Z" fill="#9EBD93"/>
</svg>
