<svg width="120" height="120" viewBox="0 0 120 120" fill="none" xmlns="http://www.w3.org/2000/svg">
<circle cx="60" cy="70" r="43.6709" stroke="#9EBD93" stroke-width="4.65823"/>
<circle cx="59.5" cy="70" r="6" fill="#9EBD93"/>
<path d="M73.5 45L59.5 70" stroke="#9EBD93" stroke-width="4" stroke-linecap="round"/>
<path fill-rule="evenodd" clip-rule="evenodd" d="M48.4686 4C46.2595 4 44.4686 5.79086 44.4686 8V13C44.4686 15.2091 46.2595 17 48.4686 17H55.4685V19C55.4685 20.1046 56.3639 21 57.4685 21H61.4685C62.5731 21 63.4685 20.1046 63.4685 19V17H70.4686C72.6777 17 74.4686 15.2091 74.4686 13V8C74.4686 5.79086 72.6777 4 70.4686 4H48.4686ZM18.0816 36.1103C17.0873 34.9351 17.2339 33.1764 18.4091 32.182L22.6649 28.5813C23.8401 27.587 25.5988 27.7336 26.5932 28.9088C27.5875 30.084 27.4409 31.8427 26.2657 32.8371L22.0099 36.4378C20.8347 37.4321 19.0759 37.2855 18.0816 36.1103ZM97.4124 28.9709C96.3238 27.8824 94.559 27.8824 93.4705 28.9709C92.3819 30.0595 92.3819 31.8243 93.4705 32.9128L97.4124 36.8547C98.5009 37.9432 100.266 37.9432 101.354 36.8547C102.443 35.7662 102.443 34.0014 101.354 32.9128L97.4124 28.9709Z" fill="#9EBD93"/>
</svg>
