<svg width="16" height="16" viewBox="0 0 16 16" fill="none" xmlns="http://www.w3.org/2000/svg">
<path fill-rule="evenodd" clip-rule="evenodd" d="M4.5 2.5C3.39543 2.5 2.5 3.39543 2.5 4.5V11.5C2.5 12.6046 3.39543 13.5 4.5 13.5H11.5C12.6046 13.5 13.5 12.6046 13.5 11.5V4.5C13.5 3.39543 12.6046 2.5 11.5 2.5H4.5ZM4.99987 8.84471C5.56758 8.85772 6.10844 9.08905 6.50999 9.49059C6.91153 9.89214 7.14286 10.433 7.15587 11.0007L7.17198 11.7037L8.57786 11.6714L8.56175 10.9685C8.54045 10.0391 8.16173 9.1536 7.50436 8.49622C6.84698 7.83885 5.96152 7.46013 5.03209 7.43883L4.32915 7.42272L4.29693 8.8286L4.99987 8.84471ZM8.45592 7.54416C7.54041 6.62865 6.30304 6.10768 5.00841 6.09263L4.30533 6.08446L4.32167 4.67831L5.02475 4.68648C6.68666 4.70579 8.27506 5.37456 9.45029 6.54979C10.6255 7.72503 11.2943 9.31343 11.3136 10.9753L11.3218 11.6784L9.91563 11.6948L9.90746 10.9917C9.89241 9.69704 9.37143 8.45967 8.45592 7.54416ZM5.85386 10.9488C5.85386 11.3917 5.49482 11.7508 5.05193 11.7508C4.60904 11.7508 4.25 11.3917 4.25 10.9488C4.25 10.506 4.60904 10.1469 5.05193 10.1469C5.49482 10.1469 5.85386 10.506 5.85386 10.9488Z" fill="#6AA753"/>
</svg>
