<svg width="120" height="120" viewBox="0 0 120 120" fill="none" xmlns="http://www.w3.org/2000/svg">
<path d="M99 19.5C99 21.0996 98.1087 22.7539 96.2058 24.3848C94.3064 26.0126 91.4993 27.5239 87.9435 28.8129C80.8401 31.3879 70.9607 33 60 33C49.0393 33 39.1599 31.3879 32.0565 28.8129C28.5007 27.5239 25.6936 26.0126 23.7941 24.3848C21.8913 22.7539 21 21.0996 21 19.5C21 17.9004 21.8913 16.2461 23.7941 14.6152C25.6936 12.9874 28.5007 11.4761 32.0565 10.1871C39.1599 7.61212 49.0393 6 60 6C70.9607 6 80.8401 7.61212 87.9435 10.1871C91.4993 11.4761 94.3064 12.9874 96.2058 14.6152C98.1087 16.2461 99 17.9004 99 19.5Z" stroke="#9EBD93" stroke-width="2"/>
<path d="M82 19C82 19.685 81.6031 20.4817 80.5574 21.3416C79.5186 22.1958 77.9552 23.0097 75.9349 23.7124C71.9039 25.1145 66.27 26 60 26C53.73 26 48.0961 25.1145 44.0651 23.7124C42.0448 23.0097 40.4814 22.1958 39.4426 21.3416C38.397 20.4817 38 19.685 38 19C38 18.315 38.397 17.5183 39.4426 16.6584C40.4814 15.8042 42.0448 14.9903 44.0651 14.2876C48.0961 12.8855 53.73 12 60 12C66.27 12 71.9039 12.8855 75.9349 14.2876C77.9552 14.9903 79.5186 15.8042 80.5574 16.6584C81.6031 17.5183 82 18.315 82 19Z" stroke="#9EBD93" stroke-width="2"/>
<path fill-rule="evenodd" clip-rule="evenodd" d="M100 18.5C100 26.5081 82.0914 33 60 33C37.9086 33 20 26.5081 20 18.5V100.5V101H20.0233C20.7503 108.777 38.3702 115 60 115C81.6297 115 99.2497 108.777 99.9767 101H100V100.5V18.5Z" fill="#9EBD93"/>
<path d="M62 47.9961C62 47.9961 94.1473 45.1199 100.5 39.4961C100.519 39.4795 100.521 83.4645 100.5 83.4961C95.5 90.9961 62 91.9961 62 91.9961V47.9961Z" fill="white"/>
</svg>
