<svg width="117" height="112" viewBox="0 0 117 112" fill="none" xmlns="http://www.w3.org/2000/svg">
    <circle cx="59" cy="56" r="50" stroke="#CBDFC9" stroke-width="12"/>
    <path d="M113.686 29.1675C113.589 29.1675 113.443 29.1188 113.345 29.07C111.932 28.1442 110.47 27.3158 109.155 26.2437C108.424 25.6589 107.888 24.7331 107.4 23.8559C106.669 22.589 105.89 21.4195 104.525 20.6398C104.915 19.6165 105.061 18.5444 104.671 17.4724C104.574 17.2287 104.379 17.0338 104.233 16.8389C103.892 16.8389 103.551 16.8389 103.161 16.8389C102.089 17.18 101.358 18.0084 100.578 18.7881C100.383 19.0317 100.14 19.0804 99.7984 19.0317C99.1649 18.9342 98.5314 18.983 97.8979 18.9342C97.6543 18.9342 97.3619 18.8855 97.167 18.7393C96.3873 18.2033 95.7051 18.2033 94.8767 18.7393C93.9509 19.3728 93.3661 20.2987 92.8301 21.2245C92.6839 21.5169 92.4402 21.7606 92.1966 21.9555C91.2707 22.6864 90.2961 23.3199 89.8576 24.4894C89.8088 24.5869 89.6626 24.6843 89.5652 24.7331C88.6393 25.2204 87.7134 25.6589 86.8363 26.1462C86.5927 26.2924 86.3003 26.3899 86.1541 26.5848C85.082 27.7056 83.6689 28.2903 82.3045 28.9726C80.94 29.6548 79.6243 30.3857 78.5035 31.409C77.2366 32.5298 75.6772 33.0171 74.0691 33.212C70.5606 33.6993 67.1008 34.1866 63.5923 34.5765C62.3253 34.7227 61.0096 34.5765 59.7426 34.479C55.5518 34.2841 51.3611 34.0892 47.2191 33.7968C46.1958 33.7481 45.1724 33.4557 44.1491 33.3095C40.8842 32.8709 37.5706 32.8709 34.3057 32.8709C32.99 32.8709 31.723 32.7247 30.4073 32.5786C28.2145 32.3836 26.0704 32.2375 23.8776 31.9938C21.3436 31.7014 18.8097 31.2629 16.227 30.9705C13.9367 30.7268 11.6951 31.0192 9.55102 32.0425C7.06581 33.212 5.31154 35.1612 4.58059 37.7926C3.80092 40.5215 3.16743 43.3478 2.6314 46.1254C2.04665 49.2441 2.09538 52.4603 2.24157 55.6277C2.33903 57.8205 2.6314 59.9646 2.72886 62.1575C2.77759 63.7168 2.58267 65.2762 2.53394 66.8355C2.24157 71.5623 1.36443 76.2404 0.146189 80.7722C0.0974594 80.8697 0.0487297 80.9671 0 81.0646C0 81.1621 0 81.2108 0 81.3083C0.194919 81.0159 0.341108 80.7722 0.536027 80.4798C0.584756 80.4798 0.584756 80.4798 0.633486 80.4798C0.438567 81.1621 0.243648 81.893 0.0487297 82.5752C0.0487297 82.6727 0.0487297 82.7214 0.0487297 82.8189C0.389838 82.1854 0.682216 81.5032 1.02332 80.8697C1.07205 80.8697 1.12078 80.8697 1.16951 80.8697C0.974594 81.7468 0.828405 82.6727 0.536027 83.5498C0.194919 84.5731 0.292378 85.3041 1.07205 85.8401C0.779675 85.1092 0.584756 84.427 1.16951 83.696C1.36443 84.1833 1.51062 84.6219 1.65681 85.0604C1.70554 85.0604 1.75427 85.0604 1.75427 85.0604C1.75427 84.5731 1.75427 84.0371 1.75427 83.5498C1.803 83.5498 1.85173 83.5498 1.90046 83.5498C1.90046 84.3295 1.85173 85.1092 1.90046 85.8888C1.90046 86.0838 2.14411 86.2787 2.24157 86.4736C2.43648 86.3274 2.68013 86.1812 2.92378 86.035C2.92378 86.0838 3.06997 86.1812 3.21616 86.4249C3.606 86.0838 3.94711 85.7427 4.38567 85.3528C4.19075 85.8401 4.04456 86.2299 3.84965 86.7172C4.14202 86.5711 4.33694 86.4736 4.67805 86.2787C4.58059 86.9122 4.4344 87.3995 4.38567 87.9355C4.23948 90.6644 4.14202 93.3932 4.04456 96.1221C3.99584 97.2429 3.89838 98.4124 3.84965 99.5332C3.84965 100.215 3.80092 100.898 3.89838 101.58C4.04456 102.554 4.48313 103.334 5.50646 103.675C5.31154 104.991 5.55519 105.381 6.87089 105.722C7.60183 105.917 8.33278 106.014 9.11245 106.112C9.79467 106.112 10.4282 106.112 11.1104 106.112C11.4027 106.014 11.6951 105.965 11.9388 105.868C12.3773 105.673 12.5235 105.381 12.2312 104.942C12.1337 104.796 12.0362 104.552 11.89 104.504C10.6718 103.821 10.4769 102.457 9.98959 101.434C9.45356 100.313 9.55102 98.9971 9.64848 97.7789C9.89213 94.9526 10.4282 92.2237 11.5977 89.641C11.8413 89.105 12.1337 88.6177 12.3773 88.1304C12.4261 88.0817 12.4748 88.033 12.5723 87.9355C13.157 89.5436 13.693 91.1029 14.2291 92.6623C14.6676 93.8805 15.1062 95.1475 15.496 96.3657C15.5448 96.5119 15.6422 96.6094 15.6422 96.7556C15.5935 98.0225 16.5194 98.656 17.3965 99.3382C17.5427 99.4357 17.7376 99.5332 17.7863 99.6794C18.2249 100.898 19.2482 101.336 20.4177 101.434C21.5385 101.58 22.708 101.58 23.8288 101.531C24.9983 101.482 25.2907 100.8 24.6572 99.8255C23.9263 98.6073 23.0979 97.4378 22.0258 96.4632C21.3923 95.9272 21.0025 94.9526 20.7588 94.1242C20.1741 91.7364 19.7355 89.3487 19.1995 86.9609C18.6147 84.1346 19.297 81.4057 19.9792 78.7256C20.1741 77.9946 20.369 77.2637 20.8076 76.5815C21.1974 75.948 21.2949 75.1196 21.5873 74.3886C21.6847 74.0475 21.8309 73.7552 21.9771 73.414C22.9517 74.2912 22.9517 74.2912 23.5364 72.8293C23.8776 72.878 24.2187 72.9268 24.6085 73.0242C24.6085 73.414 24.5598 73.8039 24.6085 74.145C24.6572 74.3399 24.8521 74.5836 24.9983 74.6323C25.1445 74.681 25.4369 74.4374 25.4856 74.2912C25.6805 73.8526 25.8267 73.3653 25.9729 72.878C27.2399 73.1704 28.6043 73.414 29.8713 73.8526C31.8205 74.5348 33.6722 75.3145 35.5727 76.0454C37.1808 76.6789 38.7401 77.4099 40.2995 78.0434C41.7126 78.6281 43.1745 78.6769 44.6364 78.3845C45.0262 78.287 45.4648 78.3845 45.9034 78.287C46.683 78.1896 47.5115 78.1408 48.2424 77.8484C50.0941 77.1662 51.8971 76.3866 53.7001 75.6069C55.7955 74.681 58.0858 74.3399 60.3274 73.9988C62.6664 73.609 65.0541 73.414 67.4419 73.7064C67.9779 73.7552 68.2703 73.9501 68.4165 74.5348C68.8063 75.948 68.8551 77.3612 69.0013 78.823C69.1962 80.6748 69.6347 82.4778 69.8297 84.3295C69.9758 85.6939 69.8784 87.1071 69.8297 88.5202C69.7809 89.7872 69.7322 91.1029 69.6835 92.3699C69.6835 93.2958 69.7809 94.2216 70.4631 94.9038C70.5606 95.0013 70.6581 95.1962 70.7068 95.3911C70.9992 96.4145 71.2915 97.4378 71.5352 98.4611C71.6814 98.9484 71.9738 99.2895 72.4611 99.3382C73.1433 99.387 73.8255 99.3382 74.459 99.2895C74.9463 99.2408 75.4336 99.0459 75.9696 98.8997C76.067 99.5332 76.4569 99.8743 77.1878 99.8255C77.2853 100.41 77.4315 100.946 77.4802 101.531C77.4802 102.018 77.6751 102.262 78.065 102.408C78.4548 102.554 78.8934 102.701 79.2832 102.749C80.5989 102.798 81.9146 102.847 83.1816 102.798C83.8638 102.798 84.1075 102.359 83.8151 101.775C83.2303 100.654 82.6943 99.4844 81.9146 98.4611C81.3786 97.7789 80.9888 97.048 80.7938 96.2683C80.6476 95.7322 80.7451 95.1962 80.6476 94.6602C80.5015 93.4907 80.3065 92.3699 80.0629 91.2004C79.868 90.1283 80.0629 89.1537 80.3065 88.1304C80.5502 87.1071 80.6964 86.0838 80.9887 85.1092C81.5735 82.8676 82.207 80.626 82.8892 78.3845C83.1329 77.5561 83.4252 76.7764 83.7176 75.8993C85.4719 76.484 86.6414 75.6069 87.7622 74.4861C88.2495 73.9988 88.6393 73.414 89.0779 72.8293C89.3215 72.5369 89.419 72.1471 89.955 72.1471C90.1499 72.1471 90.491 71.7085 90.5885 71.4161C90.8809 70.5877 91.0758 69.7593 91.3194 68.8822C92.0504 68.9796 92.3915 68.8335 92.5864 68.0538C92.7813 67.2254 92.8788 66.3482 92.9763 65.4711C93.0737 64.6914 93.025 63.9118 93.6097 63.2783C93.7072 63.1321 93.7559 62.9372 93.8047 62.7422C94.5356 59.5261 95.2178 56.3099 95.9975 53.1425C96.1924 52.2654 96.7284 51.437 97.1183 50.5598C97.3132 50.1213 97.5568 49.7314 97.8005 49.3416C98.0441 48.903 98.2391 48.5132 98.7264 48.2695C99.0675 48.0746 99.3111 47.636 99.506 47.1975C99.7984 46.5153 100.091 45.833 100.286 45.1021C100.627 43.9813 101.163 43.0067 101.991 42.227C102.186 42.0321 102.381 41.8859 102.479 41.6423C103.892 39.352 106.036 38.3774 108.618 38.0363C109.934 37.8901 111.25 37.549 112.614 37.6464C113.784 37.7439 114.807 37.3053 115.392 36.1846C115.441 36.0871 115.587 35.9409 115.684 35.9409C116.367 35.746 116.756 35.3074 117 34.6739C117 33.7481 117 32.8222 117 31.8476C116.464 30.1908 115.343 29.3624 113.686 29.1675ZM3.36235 86.035C3.02124 85.7914 2.97251 85.5477 3.21616 85.1579C3.31362 85.0117 3.26489 84.7193 3.31362 84.5244C3.31362 84.232 3.31362 83.9397 3.31362 83.5498C4.04456 84.3782 4.04456 85.2554 3.36235 86.035ZM6.52978 76.0942C6.2374 75.7043 5.89629 75.2658 5.60391 74.8759C5.50646 74.7297 5.45773 74.5836 5.409 74.3886C5.26281 71.4161 5.06789 68.3949 4.97043 65.4224C4.9217 63.2783 4.97043 61.1342 4.97043 59.0388C5.01916 59.0875 5.06789 59.185 5.11662 59.3312C5.50646 60.9392 5.99375 62.5473 6.28613 64.1554C6.52978 65.4224 6.67597 66.6894 7.21199 67.8589C7.35818 68.2 7.50437 68.5898 7.69929 68.9309C8.77135 70.8801 8.13786 74.5348 6.52978 76.0942ZM75.4336 94.0267C74.995 94.1729 74.8488 93.978 74.8488 93.6369C74.7514 92.3699 74.8001 91.1029 74.5564 89.8847C74.3128 88.8126 74.3128 87.7893 74.2641 86.7172C74.2641 86.6198 74.2641 86.5223 74.4102 86.3761C74.6052 86.8634 74.8975 87.302 74.9463 87.7893C75.1899 89.7872 75.3361 91.8339 75.4823 93.8318C75.4823 93.8805 75.4823 93.9292 75.4336 94.0267Z" fill="#82AA75"/>
    <g clip-path="url(#clip0_13_260)">
        <circle cx="59" cy="56" r="50" stroke="#CBDFC9" stroke-width="12"/>
    </g>
    <path d="M24 26L90.468 92.468" stroke="#CBDFC9" stroke-width="12" stroke-linecap="square"/>
    <defs>
        <clipPath id="clip0_13_260">
            <rect width="66" height="24" fill="white" transform="translate(49 87.998)"/>
        </clipPath>
    </defs>
</svg>
