<svg width="109" height="109" viewBox="0 0 109 109" fill="none" xmlns="http://www.w3.org/2000/svg">
    <path fill-rule="evenodd" clip-rule="evenodd" d="M66.6883 72.2295C63.1061 74.8991 58.6643 76.4792 53.8534 76.4792C43.7081 76.4792 35.2041 69.4523 32.9428 60L3 71.6444C10.0045 93.0316 30.1249 108.479 53.8534 108.479C65.8969 108.479 77.011 104.5 85.9523 97.7839L66.6883 72.2295Z" fill="#CBDFC9"/>
    <path fill-rule="evenodd" clip-rule="evenodd" d="M55 32.0057C55.1662 32.0019 55.3329 32 55.5 32C67.3741 32 77 41.6259 77 53.5C77 60.6772 73.4832 67.0331 68.0787 70.9383L87.2812 96.5416C100.457 86.7966 109 71.146 109 53.5C109 23.9528 85.0472 0 55.5 0C55.3332 0 55.1665 0.000763756 55 0.00228796V32.0057Z" fill="#9EBD93"/>
    <path fill-rule="evenodd" clip-rule="evenodd" d="M53 0.00195312C23.683 0.270355 0 24.1193 0 53.4997C0 59.2179 0.897126 64.7267 2.55831 69.8928L32.5451 58.3317C32.1884 56.7785 32 55.1611 32 53.4997C32 41.7927 41.3568 32.2711 53 32.0054V0.00195312Z" fill="#E5EFE3"/>
</svg>
