<svg width="113" height="61" viewBox="0 0 113 61" fill="none" xmlns="http://www.w3.org/2000/svg">
    <path d="M1.23824 55.6097C0.732379 54.9521 1.20119 54 2.03086 54H110.969C111.799 54 112.268 54.9521 111.762 55.6097L108.6 59.7194C108.222 60.2116 107.636 60.5 107.015 60.5H5.9848C5.36386 60.5 4.77815 60.2116 4.39956 59.7194L1.23824 55.6097Z" fill="#9EBD93"/>
    <path fill-rule="evenodd" clip-rule="evenodd" d="M55.9996 8C32.465 8 12.9705 25.2978 9.53644 47.8732C9.44584 48.4688 9.91204 49 10.5145 49H101.485C102.087 49 102.553 48.4688 102.463 47.8732C99.0287 25.2978 79.5342 8 55.9996 8ZM38.6357 17.849C39.2714 18.7523 39.0544 19.9999 38.1511 20.6356C33.8059 23.6933 27.4833 28.8688 20.6385 38.6469C20.0051 39.5518 18.7581 39.7719 17.8532 39.1385C16.9483 38.505 16.7282 37.258 17.3616 36.3531C24.5169 26.1312 31.1942 20.64 35.8491 17.3644C36.7524 16.7287 38 16.9457 38.6357 17.849ZM42.0001 14C41.4478 14 41.0001 14.4477 41.0001 15V17C41.0001 17.5523 41.4478 18 42.0001 18H44.0001C44.5524 18 45.0001 17.5523 45.0001 17V15C45.0001 14.4477 44.5524 14 44.0001 14H42.0001Z" fill="#9EBD93"/>
    <rect x="53" width="6" height="6" rx="2" fill="#9EBD93"/>
</svg>
