<svg width="16" height="16" viewBox="0 0 16 16" fill="none" xmlns="http://www.w3.org/2000/svg">
<rect x="2" y="2.5" width="12" height="3" rx="0.4" fill="#6AA753"/>
<path fill-rule="evenodd" clip-rule="evenodd" d="M2.9 6C2.67909 6 2.5 6.17909 2.5 6.4V13.1C2.5 13.3209 2.67909 13.5 2.9 13.5H13.1C13.3209 13.5 13.5 13.3209 13.5 13.1V6.4C13.5 6.17909 13.3209 6 13.1 6H2.9ZM6.9 7.5C6.67909 7.5 6.5 7.67909 6.5 7.9V8.1C6.5 8.32091 6.67909 8.5 6.9 8.5H9.1C9.32091 8.5 9.5 8.32091 9.5 8.1V7.9C9.5 7.67909 9.32091 7.5 9.1 7.5H6.9Z" fill="#6AA753"/>
</svg>
