<svg width="120" height="120" viewBox="0 0 120 120" fill="none" xmlns="http://www.w3.org/2000/svg">
<mask id="path-1-inside-1_13_397" fill="white">
<path fill-rule="evenodd" clip-rule="evenodd" d="M100 83.3055C109.46 78.8116 116 69.1696 116 58C116 43.5912 105.116 31.7244 91.1216 30.1721C86.6835 17.8277 74.8727 9 61 9C47.1919 9 35.4264 17.7457 30.9408 30.0001C15.504 30.032 3 42.5558 3 58C3 69.9408 10.4745 80.1358 21 84.1615V111H100V83.3055Z"/>
</mask>
<path d="M100 83.3055L97.4254 77.8859L94 79.5132V83.3055H100ZM91.1216 30.1721L85.4755 32.202L86.7413 35.723L90.4601 36.1355L91.1216 30.1721ZM30.9408 30.0001L30.9532 36L35.137 35.9914L36.5751 32.0625L30.9408 30.0001ZM21 84.1615H27V80.0324L23.1434 78.5574L21 84.1615ZM21 111H15V117H21V111ZM100 111V117H106V111H100ZM102.575 88.725C114.048 83.2748 122 71.5721 122 58H110C110 66.7671 104.872 74.3484 97.4254 77.8859L102.575 88.725ZM122 58C122 40.4996 108.783 26.0944 91.7831 24.2086L90.4601 36.1355C101.45 37.3545 110 46.6829 110 58H122ZM96.7678 28.1421C91.5006 13.4916 77.4832 3 61 3V15C72.2621 15 81.8664 22.1637 85.4755 32.202L96.7678 28.1421ZM61 3C44.5934 3 30.6298 13.3945 25.3064 27.9376L36.5751 32.0625C40.223 22.097 49.7903 15 61 15V3ZM30.9283 24.0001C12.1834 24.0389 -3 39.2462 -3 58H9C9 45.8653 18.8246 36.0252 30.9532 36L30.9283 24.0001ZM-3 58C-3 72.509 6.0855 84.881 18.8566 89.7656L23.1434 78.5574C14.8635 75.3906 9 67.3726 9 58H-3ZM27 111V84.1615H15V111H27ZM100 105H21V117H100V105ZM94 83.3055V111H106V83.3055H94Z" fill="#9EBD93" mask="url(#path-1-inside-1_13_397)"/>
<rect x="41" y="78" width="4" height="17" rx="1" fill="#9EBD93"/>
<rect x="58" y="78" width="4" height="17" rx="1" fill="#9EBD93"/>
<rect x="75" y="78" width="4" height="17" rx="1" fill="#9EBD93"/>
</svg>
